# xmcd CD database file
#
# Track frame offsets:
#	150
#	16125
#	33448
#	51425
#	65676
#	85477
#	101234
#	122570
#	139714
#	156211
#	172314
#	183720
#	198555
#	210974
#	236437
#	251428
#	255787
#
# Disc length: 3480 seconds
#
# Revision: 2
# Processed by: cddbd v1.4PL0 Copyright (c) Steve Scherf et al.
# Submitted via: CDex 1.40PlusFr
#
DISCID=ef0d9611
DTITLE=Mes soirées 80's N°10. - Divers
DYEAR=2002
DGENRE=Club
TTITLE0=Daniel Balavoine - Vivre ou survivre.
TTITLE1=Corynne Charby - Pile ou face.
TTITLE2=Gérard Blanc - Du soleil dans la nuit.
TTITLE3=Sophie and Magaly - Papa pingouin.
TTITLE4=David and Jonathan - Est-ce que tu viens pour les vacances?
TTITLE5=Christophe - Succès fou.
TTITLE6=Eric Charden - L'été s'ra chaud.
TTITLE7=François Feldman - Wally boule noire
TTITLE8=Charléli couture - Comme un avion sans aile.
TTITLE9=Claude Challe - C'est magnifique.
TTITLE10=Annie Cordy - Tata Yoyo.
TTITLE11=Monty and les supporters - Allez les verts.
TTITLE12=Gérard Blanchard - Rock amadour.
TTITLE13=Viola Wills - Gonna get along without you now.
TTITLE14=Bangles Walk like an Egyptian.
TTITLE15=Générique série TV - Magnum P.I
TTITLE16=Générique émission TV - Le muppet Show.
EXTD=YEAR: 2002 ID3G: 112
EXTT0=
EXTT1=
EXTT2=
EXTT3=
EXTT4=
EXTT5=
EXTT6=
EXTT7=
EXTT8=
EXTT9=
EXTT10=
EXTT11=
EXTT12=
EXTT13=
EXTT14=
EXTT15=
EXTT16=
PLAYORDER=
